<svg id="Outline" xmlns="http://www.w3.org/2000/svg" width="24" height="24" viewBox="0 0 40 40">
  <defs>
    <style>
      .cls-1 {
        fill: none;
      }
    </style>
  </defs>
  <g>
    <g>
      <path
        d="M8,11H9V33a3.00328,3.00328,0,0,0,3,3H28a3.00328,3.00328,0,0,0,3-3V11h1a1,1,0,0,0,0-2H26V7a3.00328,3.00328,0,0,0-3-3H17a3.00328,3.00328,0,0,0-3,3V9H8a1,1,0,0,0,0,2Zm8-4a1.0013,1.0013,0,0,1,1-1h6a1.0013,1.0013,0,0,1,1,1V9H16Zm13,4V33a1.0013,1.0013,0,0,1-1,1H12a1.0013,1.0013,0,0,1-1-1V11Z" />
      <path d="M20,31a1,1,0,0,0,1-1V15a1,1,0,0,0-2,0V30A1,1,0,0,0,20,31Z" />
      <path d="M25,31a1,1,0,0,0,1-1V15a1,1,0,0,0-2,0V30A1,1,0,0,0,25,31Z" />
      <path d="M15,31a1,1,0,0,0,1-1V15a1,1,0,0,0-2,0V30A1,1,0,0,0,15,31Z" />
    </g>
    <rect class="cls-1" width="40" height="40" />
  </g>
</svg>